<svg width="70" height="70" viewBox="0 0 70 70" fill="none" xmlns="http://www.w3.org/2000/svg">
<g clip-path="url(#clip0_16_2)">
<path d="M70 35C70 39.5963 69.0947 44.1475 67.3358 48.3939C65.5769 52.6403 62.9988 56.4987 59.7487 59.7487C56.4987 62.9988 52.6403 65.5769 48.3939 67.3358C44.1475 69.0947 39.5963 70 35 70C30.4037 70 25.8525 69.0947 21.6061 67.3358C17.3597 65.5769 13.5013 62.9988 10.2513 59.7487C7.00121 56.4987 4.42313 52.6403 2.66422 48.3939C0.905301 44.1475 -4.01818e-07 39.5963 0 35L10.4949 35C10.4949 38.2181 11.1287 41.4046 12.3602 44.3777C13.5917 47.3508 15.3968 50.0522 17.6723 52.3277C19.9478 54.6032 22.6492 56.4083 25.6223 57.6398C28.5954 58.8713 31.7819 59.5051 35 59.5051C38.2181 59.5051 41.4046 58.8713 44.3777 57.6398C47.3508 56.4083 50.0522 54.6032 52.3277 52.3277C54.6032 50.0522 56.4083 47.3508 57.6398 44.3777C58.8713 41.4046 59.5051 38.2181 59.5051 35H70Z" fill="currentColor"/>
<path d="M0 35C0 30.4037 0.905302 25.8525 2.66422 21.6061C4.42313 17.3597 7.00121 13.5013 10.2513 10.2513C13.5013 7.00121 17.3597 4.42313 21.6061 2.66422C25.8525 0.905301 30.4037 -2.00909e-07 35 0C39.5963 2.00909e-07 44.1475 0.905302 48.3939 2.66422C52.6403 4.42313 56.4987 7.00121 59.7487 10.2513C62.9988 13.5013 65.5769 17.3597 67.3358 21.6061C69.0947 25.8525 70 30.4037 70 35L59.5051 35C59.5051 31.7819 58.8713 28.5954 57.6398 25.6223C56.4083 22.6492 54.6032 19.9478 52.3277 17.6723C50.0522 15.3968 47.3508 13.5917 44.3777 12.3602C41.4046 11.1287 38.2181 10.4949 35 10.4949C31.7819 10.4949 28.5954 11.1287 25.6223 12.3602C22.6492 13.5917 19.9478 15.3968 17.6723 17.6723C15.3968 19.9478 13.5917 22.6492 12.3602 25.6223C11.1287 28.5954 10.4949 31.7819 10.4949 35H0Z" fill="currentColor"/>
</g>
<defs>
<clipPath id="clip0_16_2">
<rect width="70" height="70" fill="white"/>
</clipPath>
</defs>
</svg>
